<?xml version="1.0" encoding="UTF-8" standalone="no"?><!DOCTYPE svg PUBLIC "-//W3C//DTD SVG 1.1//EN" "http://www.w3.org/Graphics/SVG/1.1/DTD/svg11.dtd"><svg width="100%" height="100%" viewBox="0 0 201 71" version="1.1" xmlns="http://www.w3.org/2000/svg" xmlns:xlink="http://www.w3.org/1999/xlink" xml:space="preserve" xmlns:serif="http://www.serif.com/" style="fill-rule:evenodd;clip-rule:evenodd;stroke-miterlimit:2;"><path d="M12.797,10.654c-3.062,-0 -5.5,2.437 -5.5,5.5c0,3.062 2.438,5.5 5.5,5.5c3.063,-0 5.5,-2.438 5.5,-5.5c0,-3.063 -2.437,-5.5 -5.5,-5.5Zm-4.625,17.687l0,32l9.25,0l0,-32l-9.25,0Z" style="fill:none;fill-rule:nonzero;stroke:#eae7d9;stroke-width:1.87px;"/><path d="M35.297,27.341c-7.937,0 -13,3.75 -13,9.813c0,4.875 3.625,7.062 6.938,8.625c3.75,1.75 7.437,2.25 7.437,5.125c0,2.812 -2.375,3.562 -4.5,3.562c-4.187,0 -7.687,-3.625 -7.687,-3.625l-4.5,5.313c-0,-0 3.312,5.187 12.125,5.187c6.312,0 14.25,-1.875 14.25,-10.812c-0,-6.5 -5.5,-8.75 -9.75,-10.063c-3.5,-1.062 -5.563,-1.937 -5.563,-3.812c0,-1.875 1.313,-2.813 4.25,-2.813c3.375,0 6.313,1.875 6.313,1.875l3.937,-5.312c0,-0 -3.437,-3.063 -10.25,-3.063Z" style="fill:none;fill-rule:nonzero;stroke:#eae7d9;stroke-width:1.87px;"/><path d="M46.797,44.341c0,10 8.125,17 18.75,17c10.625,0 18.75,-7 18.75,-17c0,-10 -8.125,-17 -18.75,-17c-10.625,0 -18.75,7 -18.75,17Zm9.625,0c0,-5.312 3.938,-9.125 9.125,-9.125c5.188,0 9.125,3.813 9.125,9.125c0,5.313 -3.937,9.125 -9.125,9.125c-5.187,0 -9.125,-3.812 -9.125,-9.125Z" style="fill:none;fill-rule:nonzero;stroke:#eae7d9;stroke-width:1.87px;"/><rect x="86.797" y="6.591" width="9.25" height="53.75" style="fill:none;fill-rule:nonzero;stroke:#eae7d9;stroke-width:1.87px;"/><path d="M98.735,44.341c-0,9.5 6.687,17 16,17c4.75,0 8.75,-2.187 11.25,-5.375l-0,4.375l9.25,0l-0,-32l-9.25,0l-0,4.063c-2.625,-3.125 -6.5,-5.063 -11.25,-5.063c-9.313,0 -16,7.5 -16,17Zm9.75,0c-0,-5.375 3.875,-9.125 8.875,-9.125c5,0 8.875,3.75 8.875,9.125c-0,5.313 -3.75,9.125 -8.875,9.125c-5.25,0 -8.875,-3.812 -8.875,-9.125Z" style="fill:none;fill-rule:nonzero;stroke:#eae7d9;stroke-width:1.87px;"/><path d="M136.922,28.341l0,7l4.188,0l-0,14.625c-0,5.313 1.875,11.375 10,11.375c4.187,0 7.312,-1.812 7.312,-1.812l-2.25,-7.438c0,0 -1.312,1 -2.937,1c-2.063,0 -2.875,-1.625 -2.875,-4.812l-0,-12.938l7.062,0l0,-7l-7.062,0l-0,-12l-9.25,0l-0,12l-4.188,0Z" style="fill:none;fill-rule:nonzero;stroke:#eae7d9;stroke-width:1.87px;"/><path d="M156.922,44.279c0,9.437 7.875,17.062 17.5,17.062c7,0 12.75,-2.437 16.25,-8.25l-6.687,-3.375c-2.688,3.188 -4.875,4.25 -8.875,4.25c-4.063,0 -8.625,-2.687 -8.625,-8.437l24.812,-0c0,-0 0.063,-0.938 0.063,-1.375c-0,-10.5 -7.438,-16.813 -17.063,-16.813c-9.562,0 -17.375,7.563 -17.375,16.938Zm9.813,-3.938c0.25,-3.312 3.25,-6.312 7.812,-6.312c4.125,-0 7.313,2.687 7.813,6.312l-15.625,0Z" style="fill:none;fill-rule:nonzero;stroke:#eae7d9;stroke-width:1.87px;"/></svg>